<svg xmlns="http://www.w3.org/2000/svg" width="35.728" height="35.842" viewBox="0 0 35.728 35.842">
    <defs>
        <style>
            .cls-1{fill:#1641ff}
        </style>
    </defs>
    <path id="Shape_9" d="M84.179 75.679c-3.682-2.578-9.688-4.2-16.8-6.336-3.817-1.147-6.3-4.96-3.537-7.919a7.011 7.011 0 0 1 5.339-2.039c4.926 0 10.9 3.214 13.412 5.39l4.273-6.557h8.914V86.73c0 6.668-7 7.33-7 7.33 2.52-8.31 1.145-14.365-4.601-18.381zm-23.792 3.23a29.532 29.532 0 0 0 6.584 2.452c2.439.712 8.431 2 10.776 4.218 2.052 1.939 2.536 7.943-5.9 8.153-.179 0-.354.007-.528.007-14.24-.002-10.932-14.83-10.932-14.83z" class="cls-1" data-name="Shape 9" transform="translate(-60.054 -58.219)"/>
</svg>
